<svg width="149" height="20" viewBox="0 0 149 20" fill="none" xmlns="http://www.w3.org/2000/svg">
<path fill-rule="evenodd" clip-rule="evenodd" d="M140.257 1.93872H135.738V5.26083H140.257C142.972 5.26083 144.943 7.24492 144.943 9.97838C144.943 12.7118 142.972 14.6957 140.257 14.6957H135.73L135.736 5.26892H132.003L131.998 18.018H140.257C145.227 18.018 148.835 14.637 148.835 9.97838C148.835 5.3198 145.227 1.93872 140.257 1.93872Z" fill="white"/>
<path fill-rule="evenodd" clip-rule="evenodd" d="M126.159 12.264L116.36 2H113V18H116.842V7.73604L126.641 18H130V2H126.159V12.264Z" fill="white"/>
<path fill-rule="evenodd" clip-rule="evenodd" d="M106.898 10.5811C106.898 13.3647 105.035 15.3853 102.468 15.3853C99.9008 15.3853 98.0377 13.3647 98.0377 10.5811V1.78662H94.1071V10.5811C94.1071 15.408 97.7014 19.0477 102.468 19.0477C107.234 19.0477 110.829 15.408 110.829 10.5811V1.78662H106.898V10.5811Z" fill="white"/>
<path fill-rule="evenodd" clip-rule="evenodd" d="M75.1951 18.7202H79.1258V12.0029H88.5506V8.50415H79.1258V5.28536H91.9165V1.78687H75.1951V18.7202Z" fill="white"/>
<path fill-rule="evenodd" clip-rule="evenodd" d="M58.4544 5.28512H66.9239C67.7747 5.28512 68.3247 5.82028 68.3247 6.64872V7.14031C68.3247 7.96875 67.7747 8.50391 66.9239 8.50391H58.4544V5.28512ZM68.1009 11.8983C70.6418 11.4461 72.2551 9.56118 72.2551 6.97645C72.2551 3.87221 70.1127 1.78662 66.9239 1.78662H54.5237V18.72H58.4544V12.0027H63.737L68.0121 18.72H72.4805L68.4142 12.3453C68.3284 12.1989 68.2142 12.0418 68.1009 11.8983Z" fill="white"/>
<path fill-rule="evenodd" clip-rule="evenodd" d="M43.7302 0.0369736V0.0314941L43.7289 0.0341034L43.7273 0.0314941V0.0369736L35.0398 16.1194L37.8732 18.8406L43.5873 13.5506L40.2067 14.5956L43.7289 7.91486L47.2511 14.5956L43.8701 13.5506L49.5843 18.8406L52.4177 16.1194L43.7302 0.0369736Z" fill="#EA0A0A"/>
<path fill-rule="evenodd" clip-rule="evenodd" d="M35.6551 1.78662H18.2606V5.28512H24.9925V18.72H28.9229V5.28512H35.6551V1.78662Z" fill="white"/>
<path fill-rule="evenodd" clip-rule="evenodd" d="M8.52155 8.34015C4.77607 8.34015 4.25984 7.63747 4.25984 6.87818C4.25984 5.2907 6.48585 4.9575 8.35323 4.9575C10.5709 4.9575 12.1247 5.62443 12.3989 6.647H16.3658C16.1578 3.52945 12.991 1.45874 8.35323 1.45874C3.17886 1.45874 0.329144 3.38333 0.329144 6.87818C0.329144 10.3553 2.68863 11.8389 8.21868 11.8389C12.2646 11.8389 12.7833 12.6901 12.7833 13.4319C12.7833 15.274 10.0075 15.549 8.35323 15.549C5.87956 15.549 4.16469 14.8416 3.94758 13.7653H0C0.156263 16.9348 3.47236 19.0478 8.35323 19.0478C13.7447 19.0478 16.714 17.0533 16.714 13.4319C16.714 9.9104 14.1872 8.34015 8.52155 8.34015Z" fill="white"/>
</svg>
