<svg width="60" height="60" viewBox="0 0 60 60" fill="none" xmlns="http://www.w3.org/2000/svg">
<path fill-rule="evenodd" clip-rule="evenodd" d="M60 30C60 13.4193 46.5825 0 30 0C13.4193 0 0 13.4175 0 30C0 46.4337 13.3054 60 30 60C46.626 60 60 46.5092 60 30ZM30 3.51562C44.6036 3.51562 56.4844 15.3964 56.4844 30C56.4844 35.3421 54.8955 40.4768 51.9489 44.826C40.1166 32.0984 19.9049 32.0755 8.05115 44.826C5.10452 40.4768 3.51562 35.3421 3.51562 30C3.51562 15.3964 15.3964 3.51562 30 3.51562ZM10.2438 47.6367C20.7642 35.8365 39.2386 35.8392 49.7557 47.6367C39.2001 59.4461 20.804 59.4498 10.2438 47.6367Z" fill="white"/>
<path fill-rule="evenodd" clip-rule="evenodd" d="M40.5469 21.2109C40.5469 27.0264 35.8154 31.7578 30 31.7578C24.1846 31.7578 19.4531 27.0264 19.4531 21.2109V17.6953C19.4531 11.8799 24.1846 7.14844 30 7.14844C35.8154 7.14844 40.5469 11.8799 40.5469 17.6953V21.2109ZM30 10.6641C26.1227 10.6641 22.9688 13.8181 22.9688 17.6953V21.2109C22.9688 25.0882 26.1227 28.2422 30 28.2422C33.8773 28.2422 37.0312 25.0882 37.0312 21.2109V17.6953C37.0312 13.8181 33.8773 10.6641 30 10.6641Z" fill="white"/>
</svg>
