<svg width="61" height="60" viewBox="0 0 61 60" fill="none" xmlns="http://www.w3.org/2000/svg">
<path fill-rule="evenodd" clip-rule="evenodd" d="M41.3664 0H58.3577C59.736 0 60.5774 1.51932 59.8495 2.68845L46.0104 24.9106C49.2775 28.6354 51.2619 33.5133 51.2619 38.8467C51.2619 50.5106 41.7766 60 30.1173 60C18.4586 60 8.97324 50.5106 8.97324 38.8467C8.97324 33.5133 10.9572 28.6354 14.2247 24.9106L0.385132 2.68845C-0.343628 1.51794 0.500488 0 1.87698 0H18.8683C19.4766 0 20.0424 0.314941 20.3629 0.832672L30.1173 16.5971L39.8723 0.832672C40.1927 0.314941 40.7581 0 41.3664 0ZM26.8205 17.9507L17.8891 3.517H5.04333L16.8138 22.4176C19.6405 20.1228 23.0678 18.5413 26.8205 17.9507ZM30.1173 56.483C20.3967 56.483 12.4884 48.5715 12.4884 38.8467C12.4884 29.122 20.3967 21.21 30.1173 21.21C39.838 21.21 47.7463 29.1216 47.7463 38.8467C47.7463 48.5715 39.838 56.483 30.1173 56.483ZM33.4142 17.9507C37.1669 18.5413 40.5942 20.1228 43.4209 22.4181L55.1913 3.517H42.3456L33.4142 17.9507Z" fill="white"/>
<path fill-rule="evenodd" clip-rule="evenodd" d="M34.9668 33.23L41.1054 34.769C42.362 35.0839 42.8577 36.6092 42.0255 37.6035L37.9638 42.458L38.3977 48.7743C38.4865 50.067 37.1892 51.0095 35.9876 50.5257L30.1173 48.1613L24.2469 50.5257C23.0453 51.01 21.7484 50.0675 21.8372 48.7743L22.2707 42.458L18.209 37.6035C17.3772 36.6092 17.8725 35.0839 19.1296 34.769L25.2677 33.23L28.6277 27.865C29.3157 26.7664 30.9193 26.7668 31.6068 27.865L34.9668 33.23ZM34.4083 41.993C34.3772 41.5398 34.5228 41.0921 34.8139 40.7437L37.5294 37.4982L33.426 36.4691C32.9851 36.3588 32.6047 36.0819 32.3635 35.6969L30.1173 32.1108L27.871 35.6969C27.6298 36.0819 27.2494 36.3588 26.809 36.4691L22.7051 37.4982L25.4206 40.7437C25.7122 41.0921 25.8578 41.5393 25.8266 41.993L25.5364 46.2154L29.4608 44.6347C29.882 44.4649 30.3525 44.4649 30.7737 44.6347L34.6981 46.2154L34.4083 41.993Z" fill="white"/>
</svg>
