<svg width="53" height="60" viewBox="0 0 53 60" fill="none" xmlns="http://www.w3.org/2000/svg">
<path fill-rule="evenodd" clip-rule="evenodd" d="M46.5239 0C50.0775 0 52.9688 2.89307 52.9688 6.44897L52.9926 46.5491C52.9948 50.1151 50.1109 53.0017 46.5472 53.0017H38.7621C33.5527 59.0295 27.1756 60 26.4816 60C25.1578 60 20.5307 58.7627 16.55 55.3468C15.7141 54.63 14.9313 53.8467 14.2012 53.0017H6.44485C2.89124 53.0017 0 50.1086 0 46.5527V6.44897C0 2.89307 2.89124 0 6.44485 0H46.5239ZM46.5239 3.51791H6.44485C4.82986 3.51791 3.51562 4.83261 3.51562 6.44897V14.1884H49.4577L49.4531 6.44989C49.4531 4.83261 48.1389 3.51791 46.5239 3.51791ZM26.4825 56.4638C19.0302 55.1967 11.2019 47.6999 10.6915 31.642C19.8495 31.2314 24.6181 27.7057 26.689 25.5679C29.1609 27.54 34.6376 31.1252 42.2717 31.6237C41.7654 47.748 33.8667 55.2086 26.4825 56.4638ZM41.2816 49.4838H46.5472C48.1673 49.4838 49.4778 48.1714 49.4769 46.5509L49.46 17.7063H3.51562V46.5527C3.51562 48.1691 4.82986 49.4838 6.44485 49.4838H11.6812C8.27362 43.7151 7.14935 36.6792 7.14935 29.9226C7.14935 28.9513 7.93625 28.1639 8.90717 28.1639C17.9411 28.1639 23.2928 24.7536 24.9728 22.1489C25.5226 21.1835 26.8781 20.9477 27.7341 21.8179C31.0011 25.1157 37.5082 28.1639 44.0561 28.1639C45.0266 28.1639 45.8139 28.9513 45.8139 29.9226C45.8139 36.6788 44.6892 43.7155 41.2816 49.4838Z" fill="white"/>
<path fill-rule="evenodd" clip-rule="evenodd" d="M45.8203 8.91174C45.8203 7.94037 45.0334 7.15302 44.0625 7.15302C43.0916 7.15302 42.3047 7.94037 42.3047 8.91174C42.3047 9.88312 43.0916 10.6705 44.0625 10.6705C45.0334 10.6705 45.8203 9.88312 45.8203 8.91174Z" fill="white"/>
<path fill-rule="evenodd" clip-rule="evenodd" d="M38.7891 8.91174C38.7891 7.94037 38.0022 7.15302 37.0312 7.15302C36.0603 7.15302 35.2734 7.94037 35.2734 8.91174C35.2734 9.88312 36.0603 10.6705 37.0312 10.6705C38.0022 10.6705 38.7891 9.88312 38.7891 8.91174Z" fill="white"/>
<path fill-rule="evenodd" clip-rule="evenodd" d="M31.7578 8.91174C31.7578 7.94037 30.9709 7.15302 30 7.15302C29.0291 7.15302 28.2422 7.94037 28.2422 8.91174C28.2422 9.88312 29.0291 10.6705 30 10.6705C30.9709 10.6705 31.7578 9.88312 31.7578 8.91174Z" fill="white"/>
<path fill-rule="evenodd" clip-rule="evenodd" d="M31.2757 36.2585L24.5937 42.9446L21.6869 40.0365C21.0007 39.3494 19.8875 39.3494 19.2013 40.0365C18.5146 40.7231 18.5146 41.8369 19.2013 42.5235L23.3509 46.6759C24.0371 47.3625 25.1499 47.3625 25.8365 46.6759L33.7614 38.746C34.448 38.0589 34.448 36.9452 33.7614 36.2585C33.0752 35.5719 31.9619 35.5719 31.2757 36.2585Z" fill="white"/>
</svg>
