<svg width="43" height="60" viewBox="0 0 43 60" fill="none" xmlns="http://www.w3.org/2000/svg">
<path fill-rule="evenodd" clip-rule="evenodd" d="M6.3779 15.9123C7.33463 15.7471 7.97595 14.838 7.81116 13.8812C6.87503 8.45673 11.0595 3.51562 16.5293 3.51562C21.9826 3.51562 26.1743 8.43338 25.251 13.8597C25.0885 14.8169 25.7321 15.7246 26.6893 15.8876C27.6465 16.051 28.5543 15.4065 28.7172 14.4493C30.0017 6.89667 24.1725 0 16.5293 0C8.89469 0 3.0376 6.89575 4.3468 14.4791C4.51206 15.4385 5.42484 16.0771 6.3779 15.9123Z" fill="white"/>
<path fill-rule="evenodd" clip-rule="evenodd" d="M28.2028 25.8568C30.7786 24.5824 33.9166 25.6146 35.234 28.2005C38.7304 26.4706 42.8379 29.0355 42.8379 32.9297V51.2109C42.8379 56.0573 38.8952 60 34.0489 60H19.7351C17.3153 60 14.978 58.9874 13.3232 57.2228L1.4552 44.5642C-0.583225 42.4228 -0.472904 39.0157 1.74084 37.0148C3.83877 35.1183 7.15756 35.2643 9.13968 37.3393L11.2046 39.5018V12.4219C11.2046 9.44504 13.666 7.06604 16.6365 7.15027C19.4714 7.22809 21.7772 9.6254 21.7772 12.4947V23.2599C24.2665 22.3956 27.0053 23.5062 28.2028 25.8568ZM34.0489 56.4844C36.9566 56.4844 39.3223 54.1187 39.3223 51.2109V32.9297C39.3223 31.9606 38.5336 31.1719 37.5645 31.1719C36.5954 31.1719 35.8067 31.9606 35.8067 32.9297V33.5156C35.8067 34.4865 35.0198 35.2734 34.0489 35.2734C33.078 35.2734 32.2911 34.4865 32.2911 33.5156V30.5859C32.2911 29.6169 31.5023 28.8281 30.5333 28.8281C29.5642 28.8281 28.7754 29.6169 28.7754 30.5859V33.5156C28.7754 34.4865 27.9886 35.2734 27.0176 35.2734C26.0467 35.2734 25.2598 34.4865 25.2598 33.5156V28.2422C25.2598 27.2731 24.4711 26.4844 23.502 26.4844C22.6469 26.4844 21.9337 27.0978 21.7772 27.908V33.5156C21.7772 34.4897 20.9829 35.2826 20.0029 35.2725C19.0214 35.2826 18.2286 34.4893 18.2286 33.5156C18.2286 29.0907 18.2345 28.1133 18.2413 26.9866C18.2506 25.4534 18.2615 23.6437 18.2615 12.4947C18.2615 11.5114 17.4897 10.6906 16.5408 10.6645C15.5392 10.6366 14.7198 11.434 14.7198 12.4219V43.8881C14.7198 45.4697 12.783 46.246 11.6908 45.1016L6.5968 39.7673C5.91793 39.0564 4.79687 38.9914 4.09787 39.6227C3.35629 40.2937 3.32379 41.4304 4.00357 42.1426C4.02485 42.1651 6.98532 45.3226 9.9458 48.4802C12.9063 51.6377 15.8667 54.7952 15.888 54.8177C16.8809 55.8769 18.283 56.4844 19.7351 56.4844H34.0489Z" fill="white"/>
</svg>
