<svg width="29" height="40" viewBox="0 0 29 40" fill="none" xmlns="http://www.w3.org/2000/svg">
<path fill-rule="evenodd" clip-rule="evenodd" d="M0.0222168 15.7099C0.0222168 5.87264 5.36079 0 14.304 0C23.2472 0 28.5857 5.87264 28.5856 15.7099C28.5856 26.4412 15.8463 39.049 15.3036 39.5803C14.7483 40.1247 13.8595 40.1247 13.3042 39.5803C12.7615 39.0491 0.0222168 26.4412 0.0222168 15.7099ZM2.87862 15.7099C2.87862 23.6305 11.3505 33.355 14.304 36.5055C17.256 33.3536 25.7293 23.6192 25.7293 15.7099C25.7293 7.42644 21.6719 2.85632 14.304 2.85632C6.93602 2.85632 2.87862 7.42644 2.87862 15.7099Z" fill="white"/>
<path fill-rule="evenodd" clip-rule="evenodd" d="M7.16309 12.8536C7.16309 8.90984 10.3602 5.71277 14.3039 5.71277C18.2458 5.71745 21.4401 8.91176 21.4448 12.8536C21.4448 16.7974 18.2477 19.9944 14.3039 19.9944C10.3602 19.9944 7.16309 16.7974 7.16309 12.8536ZM10.0194 12.8536C10.0194 15.2199 11.9376 17.1381 14.3039 17.1381C16.6702 17.1381 18.5884 15.2199 18.5884 12.8536C18.5884 10.4873 16.6702 8.56909 14.3039 8.56909C11.9376 8.56909 10.0194 10.4873 10.0194 12.8536Z" fill="white"/>
</svg>
