<svg width="40" height="26" viewBox="0 0 40 26" fill="none" xmlns="http://www.w3.org/2000/svg">
<path fill-rule="evenodd" clip-rule="evenodd" d="M39.3119 3.09704C38.8909 2.8367 38.365 2.81294 37.9223 3.03419L28.5634 7.71428V4.31235C28.5634 1.94607 26.6452 0.027832 24.2789 0.027832H4.28452C1.91824 0.027832 0 1.94607 0 4.31235V21.4504C0 23.8167 1.91824 25.7349 4.28452 25.7349H24.2789C26.6452 25.7349 28.5634 23.8167 28.5634 21.4504V18.0485L37.9223 22.7358C38.6279 23.0883 39.4856 22.8022 39.8382 22.0966C39.9385 21.896 39.9901 21.6746 39.9889 21.4504V4.31235C39.9891 3.81729 39.733 3.35746 39.3119 3.09704ZM25.7071 21.4504C25.7071 22.2392 25.0677 22.8786 24.2789 22.8786H4.28452C3.49573 22.8786 2.85632 22.2392 2.85632 21.4504V4.31235C2.85632 3.52356 3.49573 2.88415 4.28452 2.88415H24.2789C25.0677 2.88415 25.7071 3.52356 25.7071 4.31235V21.4504ZM28.5634 14.8552L37.1325 19.1397V6.62323L28.5634 10.9077V14.8552Z" fill="white"/>
<path fill-rule="evenodd" clip-rule="evenodd" d="M8.56909 12.8814C8.56909 9.72636 11.1267 7.1687 14.2818 7.1687C17.4368 7.1687 19.9945 9.72636 19.9945 12.8814C19.9945 16.0365 17.4369 18.5941 14.2818 18.5941C11.1267 18.5941 8.56909 16.0365 8.56909 12.8814ZM11.4255 12.8814C11.4255 14.4589 12.7043 15.7377 14.2818 15.7377C15.8593 15.7377 17.1381 14.4589 17.1381 12.8814C17.1381 11.3039 15.8593 10.0251 14.2818 10.0251C12.7043 10.0251 11.4255 11.3039 11.4255 12.8814Z" fill="white"/>
</svg>
